<svg id="book" xmlns="http://www.w3.org/2000/svg" width="78.278" height="108.908" viewBox="0 0 78.278 108.908">
  <path id="Path_9" data-name="Path 9" d="M146.874,0H86.039A14.055,14.055,0,0,0,72,14.039V93.593a15.333,15.333,0,0,0,15.315,15.315h59.559a3.4,3.4,0,0,0,0-6.807H87.315a8.508,8.508,0,0,1,0-17.017h59.559a3.4,3.4,0,0,0,3.4-3.4V3.4A3.4,3.4,0,0,0,146.874,0ZM78.807,79.008V14.039a7.232,7.232,0,0,1,7.232-7.232h.213A1.064,1.064,0,0,1,87.315,7.87V77.249a1.058,1.058,0,0,1-.983,1.06,15.2,15.2,0,0,0-5.988,1.651A1.061,1.061,0,0,1,78.807,79.008Z" transform="translate(-72)" fill="#ffb7a4"/>
  <path id="Path_10" data-name="Path 10" d="M190.963,424H131.4a3.4,3.4,0,0,0,0,6.807h59.559a3.4,3.4,0,0,0,0-6.807Z" transform="translate(-116.088 -333.811)" fill="#ffb7a4"/>
</svg>
