<svg xmlns="http://www.w3.org/2000/svg" width="53.951" height="55.401" viewBox="0 0 53.951 55.401">
  <path id="gear" d="M59.718,33.772,54.625,29.79a18.53,18.53,0,0,0,0-4.183l5.1-3.984a2.5,2.5,0,0,0,.6-3.183l-5.3-9.157a2.5,2.5,0,0,0-3.063-1.1l-6,2.415A20.56,20.56,0,0,0,42.356,8.5l-.921-6.376A2.454,2.454,0,0,0,38.984,0H28.365a2.447,2.447,0,0,0-2.438,2.105L25,8.5a21.321,21.321,0,0,0-3.6,2.1L15.385,8.177a2.454,2.454,0,0,0-3.04,1.083l-5.3,9.174a2.479,2.479,0,0,0,.6,3.2l5.092,3.982a18.355,18.355,0,0,0,0,4.183l-5.1,3.982a2.5,2.5,0,0,0-.6,3.183l5.3,9.16a2.5,2.5,0,0,0,3.063,1.1l6-2.415A20.655,20.655,0,0,0,25,46.9l.923,6.371A2.449,2.449,0,0,0,28.365,55.4H38.984A2.449,2.449,0,0,0,41.428,53.3l.923-6.394a21.363,21.363,0,0,0,3.6-2.1l6.025,2.422a2.456,2.456,0,0,0,3.04-1.083l5.319-9.21A2.491,2.491,0,0,0,59.718,33.772ZM33.674,39.243A11.542,11.542,0,1,1,45.216,27.7,11.542,11.542,0,0,1,33.674,39.243Z" transform="translate(-6.703 0)" fill="#fff"/>
</svg>
