<svg id="star" xmlns="http://www.w3.org/2000/svg" width="72.591" height="69.247" viewBox="0 0 72.591 69.247">
  <g id="Group_2" data-name="Group 2" transform="translate(0 0)">
    <path id="Path_7" data-name="Path 7" d="M72.487,38.091a2.126,2.126,0,0,0-1.717-1.447l-22.5-3.27L38.2,12.981a2.127,2.127,0,0,0-3.814,0L24.324,33.373l-22.5,3.27A2.127,2.127,0,0,0,.643,40.271L16.926,56.144,13.082,78.556A2.127,2.127,0,0,0,16.168,80.8L36.3,70.216,56.423,80.8a2.127,2.127,0,0,0,3.086-2.242L55.664,56.144,71.949,40.271A2.126,2.126,0,0,0,72.487,38.091Z" transform="translate(0 -11.796)" fill="#fff"/>
  </g>
</svg>
