<svg xmlns="http://www.w3.org/2000/svg" width="43.955" height="41.672" viewBox="0 0 43.955 41.672">
  <g id="upwards" transform="translate(43.955) rotate(90)">
    <path id="Path_2" data-name="Path 2" d="M.33,41.9c-.412.855-.424,1.493-.113,1.834.723.791,2.946-.722,4.314-1.674l10.8-7.521c1.368-.952,3.774-2.189,5.441-2.218.166,0,.333,0,.5,0,1.666.04,4.061,1.3,5.419,2.264l10.432,7.426c1.358.966,3.57,2.492,4.31,1.705.322-.342.324-.986-.07-1.849L22.839,1.3c-.789-1.726-2.1-1.739-2.921-.03Z" transform="translate(0 0)" fill="#fff"/>
  </g>
</svg>
